<?xml version="1.0" encoding="UTF-8"?>
<svg width="1349px" height="203px" viewBox="0 0 1349 203" version="1.1" xmlns="http://www.w3.org/2000/svg" xmlns:xlink="http://www.w3.org/1999/xlink">
    <!-- Generator: Sketch 52.2 (67145) - http://www.bohemiancoding.com/sketch -->
    <title>DailyMoment</title>
    <desc>Created with Sketch.</desc>
    <g id="Page-1" stroke="none" stroke-width="1" fill="none" fill-rule="evenodd">
        <path d="M112.5,0.5 L112.5,101.5 C112.5,109.166705 111.041681,116.416632 108.125,123.25 C105.208319,130.083368 101.208359,136.083308 96.125,141.25 C91.0416412,146.416692 85.0833675,150.458319 78.25,153.375 C71.4166325,156.291681 64.166705,157.75 56.5,157.75 C48.833295,157.75 41.5833675,156.291681 34.75,153.375 C27.9166325,150.458319 21.9166925,146.416692 16.75,141.25 C11.5833075,136.083308 7.54168125,130.083368 4.625,123.25 C1.70831875,116.416632 0.25,109.166705 0.25,101.5 C0.25,93.6666275 1.70831875,86.3750338 4.625,79.625 C7.54168125,72.8749662 11.5833075,66.9583588 16.75,61.875 C21.9166925,56.7916412 27.9166325,52.7916813 34.75,49.875 C41.5833675,46.9583187 48.833295,45.5 56.5,45.5 L90.25,45.5 L90.25,0.5 L112.5,0.5 Z M56.5,135.5 C61.16669,135.5 65.5416462,134.625009 69.625,132.875 C73.7083538,131.124991 77.2916512,128.708349 80.375,125.625 C83.4583488,122.541651 85.8749912,118.916687 87.625,114.75 C89.3750088,110.583313 90.25,106.16669 90.25,101.5 L90.25,67.75 L56.5,67.75 C51.83331,67.75 47.4166875,68.6249912 43.25,70.375 C39.0833125,72.1250088 35.4583488,74.5416512 32.375,77.625 C29.2916512,80.7083488 26.8750088,84.2916462 25.125,88.375 C23.3749912,92.4583538 22.5,96.83331 22.5,101.5 C22.5,106.16669 23.3749912,110.583313 25.125,114.75 C26.8750088,118.916687 29.2916512,122.541651 32.375,125.625 C35.4583488,128.708349 39.0833125,131.124991 43.25,132.875 C47.4166875,134.625009 51.83331,135.5 56.5,135.5 Z M185.45,45.5 C193.283372,45.5 200.574966,46.9583187 207.325,49.875 C214.075034,52.7916813 219.991641,56.7916412 225.075,61.875 C230.158359,66.9583588 234.158319,72.8749662 237.075,79.625 C239.991681,86.3750338 241.45,93.6666275 241.45,101.5 L241.45,157.75 L185.45,157.75 C177.783295,157.75 170.533367,156.291681 163.7,153.375 C156.866632,150.458319 150.866692,146.416692 145.7,141.25 C140.533307,136.083308 136.491681,130.083368 133.575,123.25 C130.658319,116.416632 129.2,109.166705 129.2,101.5 C129.2,93.6666275 130.658319,86.3750338 133.575,79.625 C136.491681,72.8749662 140.533307,66.9583588 145.7,61.875 C150.866692,56.7916412 156.866632,52.7916813 163.7,49.875 C170.533367,46.9583187 177.783295,45.5 185.45,45.5 Z M219.2,135.5 L219.2,101.5 C219.2,96.83331 218.325009,92.4583538 216.575,88.375 C214.824991,84.2916462 212.408349,80.7083488 209.325,77.625 C206.241651,74.5416512 202.658354,72.1250088 198.575,70.375 C194.491646,68.6249912 190.11669,67.75 185.45,67.75 C180.78331,67.75 176.366687,68.6249912 172.2,70.375 C168.033312,72.1250088 164.408349,74.5416512 161.325,77.625 C158.241651,80.7083488 155.825009,84.2916462 154.075,88.375 C152.324991,92.4583538 151.45,96.83331 151.45,101.5 C151.45,106.16669 152.324991,110.583313 154.075,114.75 C155.825009,118.916687 158.241651,122.541651 161.325,125.625 C164.408349,128.708349 168.033312,131.124991 172.2,132.875 C176.366687,134.625009 180.78331,135.5 185.45,135.5 L219.2,135.5 Z M257.4,45.5 L279.4,45.5 L279.4,157.75 L257.4,157.75 L257.4,45.5 Z M296.099999,0.5 L318.349999,0.5 L318.349999,157.75 L296.099999,157.75 L296.099999,0.5 Z M448.049999,45.75 L448.049999,146.75 C448.049999,154.583372 446.59168,161.874966 443.674999,168.625 C440.758318,175.375034 436.758358,181.333308 431.674999,186.5 C426.59164,191.666692 420.675033,195.708319 413.924999,198.625 C407.174965,201.541681 399.883372,203 392.049999,203 L380.799999,203 L380.799999,180.75 L392.049999,180.75 C396.716689,180.75 401.091645,179.875009 405.174999,178.125 C409.258353,176.374991 412.84165,173.958349 415.924999,170.875 C419.008348,167.791651 421.42499,164.166687 423.174999,160 C424.925008,155.833313 425.799999,151.41669 425.799999,146.75 L425.799999,146.5 C421.133309,150.166685 415.925028,152.99999 410.174999,155 C404.42497,157.00001 398.383364,158 392.049999,158 C384.383294,158 377.133367,156.541681 370.299999,153.625 C363.466632,150.708319 357.466692,146.666692 352.299999,141.5 C347.133307,136.333308 343.09168,130.333368 340.174999,123.5 C337.258318,116.666632 335.799999,109.416705 335.799999,101.75 L335.799999,45.75 L358.049999,45.75 L358.049999,101.75 C358.049999,106.41669 358.92499,110.833313 360.674999,115 C362.425008,119.166687 364.84165,122.791651 367.924999,125.875 C371.008348,128.958349 374.633312,131.374991 378.799999,133.125 C382.966687,134.875009 387.383309,135.75 392.049999,135.75 C396.716689,135.75 401.091645,134.875009 405.174999,133.125 C409.258353,131.374991 412.84165,128.958349 415.924999,125.875 C419.008348,122.791651 421.42499,119.166687 423.174999,115 C424.925008,110.833313 425.799999,106.41669 425.799999,101.75 L425.799999,45.75 L448.049999,45.75 Z M610.499999,45.5 C618.333372,45.5 625.624965,46.9583187 632.374999,49.875 C639.125033,52.7916813 645.083307,56.7916412 650.249999,61.875 C655.416692,66.9583588 659.458318,72.8749662 662.374999,79.625 C665.29168,86.3750338 666.749999,93.6666275 666.749999,101.5 L666.749999,157.75 L644.499999,157.75 L644.499999,101.5 C644.499999,96.83331 643.625008,92.4583538 641.874999,88.375 C640.12499,84.2916462 637.708348,80.7083488 634.624999,77.625 C631.54165,74.5416512 627.916687,72.1250088 623.749999,70.375 C619.583312,68.6249912 615.166689,67.75 610.499999,67.75 C605.833309,67.75 601.458353,68.6249912 597.374999,70.375 C593.291645,72.1250088 589.708348,74.5416512 586.624999,77.625 C583.54165,80.7083488 581.125008,84.2916462 579.374999,88.375 C577.62499,92.4583538 576.749999,96.83331 576.749999,101.5 L576.749999,157.75 L554.499999,157.75 L554.499999,101.5 C554.499999,96.83331 553.625008,92.4583538 551.874999,88.375 C550.12499,84.2916462 547.708348,80.7083488 544.624999,77.625 C541.54165,74.5416512 537.916687,72.1250088 533.749999,70.375 C529.583312,68.6249912 525.166689,67.75 520.499999,67.75 C515.833309,67.75 511.458353,68.6249912 507.374999,70.375 C503.291645,72.1250088 499.708348,74.5416512 496.624999,77.625 C493.54165,80.7083488 491.125008,84.2916462 489.374999,88.375 C487.62499,92.4583538 486.749999,96.83331 486.749999,101.5 L486.749999,157.75 L464.499999,157.75 L464.499999,101.5 C464.499999,93.6666275 465.958318,86.3750338 468.874999,79.625 C471.79168,72.8749662 475.79164,66.9583588 480.874999,61.875 C485.958358,56.7916412 491.916632,52.7916813 498.749999,49.875 C505.583367,46.9583187 512.833294,45.5 520.499999,45.5 C529.833379,45.5 538.37496,47.5416462 546.124999,51.625 C553.875038,55.7083538 560.333307,61.249965 565.499999,68.25 C570.666692,61.249965 577.166627,55.7083538 584.999999,51.625 C592.833372,47.5416462 601.333287,45.5 610.499999,45.5 Z M683.949999,102 C683.949999,94.1666275 685.408318,86.8750338 688.324999,80.125 C691.24168,73.3749662 695.24164,67.4583588 700.324999,62.375 C705.408358,57.2916412 711.366631,53.2916813 718.199999,50.375 C725.033366,47.4583187 732.283294,46 739.949999,46 C747.783371,46 755.074965,47.4583187 761.824999,50.375 C768.575033,53.2916813 774.533306,57.2916412 779.699999,62.375 C784.866691,67.4583588 788.908318,73.3749662 791.824999,80.125 C794.74168,86.8750338 796.199999,94.1666275 796.199999,102 C796.199999,109.666705 794.74168,116.916632 791.824999,123.75 C788.908318,130.583368 784.866691,136.583308 779.699999,141.75 C774.533306,146.916692 768.575033,150.958319 761.824999,153.875 C755.074965,156.791681 747.783371,158.25 739.949999,158.25 C732.283294,158.25 725.033366,156.791681 718.199999,153.875 C711.366631,150.958319 705.408358,146.916692 700.324999,141.75 C695.24164,136.583308 691.24168,130.583368 688.324999,123.75 C685.408318,116.916632 683.949999,109.666705 683.949999,102 Z M705.949999,102 C705.949999,106.66669 706.82499,111.083313 708.574999,115.25 C710.325008,119.416687 712.74165,123.041651 715.824999,126.125 C718.908348,129.208349 722.533311,131.624991 726.699999,133.375 C730.866686,135.125009 735.283309,136 739.949999,136 C744.616689,136 749.033311,135.125009 753.199999,133.375 C757.366686,131.624991 760.99165,129.208349 764.074999,126.125 C767.158348,123.041651 769.57499,119.416687 771.324999,115.25 C773.075008,111.083313 773.949999,106.66669 773.949999,102 C773.949999,97.33331 773.075008,92.9583538 771.324999,88.875 C769.57499,84.7916462 767.158348,81.2083488 764.074999,78.125 C760.99165,75.0416512 757.366686,72.6250088 753.199999,70.875 C749.033311,69.1249912 744.616689,68.25 739.949999,68.25 C735.283309,68.25 730.866686,69.1249912 726.699999,70.875 C722.533311,72.6250088 718.908348,75.0416512 715.824999,78.125 C712.74165,81.2083488 710.325008,84.7916462 708.574999,88.875 C706.82499,92.9583538 705.949999,97.33331 705.949999,102 Z M958.649999,45.5 C966.483371,45.5 973.774965,46.9583187 980.524999,49.875 C987.275032,52.7916813 993.233306,56.7916412 998.399999,61.875 C1003.56669,66.9583588 1007.60832,72.8749662 1010.525,79.625 C1013.44168,86.3750338 1014.9,93.6666275 1014.9,101.5 L1014.9,157.75 L992.649999,157.75 L992.649999,101.5 C992.649999,96.83331 991.775007,92.4583538 990.024999,88.375 C988.27499,84.2916462 985.858347,80.7083488 982.774999,77.625 C979.69165,74.5416512 976.066686,72.1250088 971.899999,70.375 C967.733311,68.6249912 963.316689,67.75 958.649999,67.75 C953.983309,67.75 949.608352,68.6249912 945.524999,70.375 C941.441645,72.1250088 937.858347,74.5416512 934.774999,77.625 C931.69165,80.7083488 929.275007,84.2916462 927.524999,88.375 C925.77499,92.4583538 924.899999,96.83331 924.899999,101.5 L924.899999,157.75 L902.649999,157.75 L902.649999,101.5 C902.649999,96.83331 901.775007,92.4583538 900.024999,88.375 C898.27499,84.2916462 895.858347,80.7083488 892.774999,77.625 C889.69165,74.5416512 886.066686,72.1250088 881.899999,70.375 C877.733311,68.6249912 873.316689,67.75 868.649999,67.75 C863.983309,67.75 859.608352,68.6249912 855.524999,70.375 C851.441645,72.1250088 847.858347,74.5416512 844.774999,77.625 C841.69165,80.7083488 839.275007,84.2916462 837.524999,88.375 C835.77499,92.4583538 834.899999,96.83331 834.899999,101.5 L834.899999,157.75 L812.649999,157.75 L812.649999,101.5 C812.649999,93.6666275 814.108317,86.3750338 817.024999,79.625 C819.94168,72.8749662 823.94164,66.9583588 829.024999,61.875 C834.108357,56.7916412 840.066631,52.7916813 846.899999,49.875 C853.733366,46.9583187 860.983294,45.5 868.649999,45.5 C877.983379,45.5 886.52496,47.5416462 894.274999,51.625 C902.025037,55.7083538 908.483306,61.249965 913.649999,68.25 C918.816691,61.249965 925.316626,55.7083538 933.149999,51.625 C940.983371,47.5416462 949.483286,45.5 958.649999,45.5 Z M1120.1,118.25 L1135.85,134 L1128.1,141.75 C1122.76664,147.08336 1116.68337,151.166653 1109.85,154 C1103.01663,156.833347 1095.85004,158.25 1088.35,158.25 C1080.84996,158.25 1073.68337,156.833347 1066.85,154 C1060.01663,151.166653 1053.93336,147.08336 1048.6,141.75 C1043.09997,136.249973 1039.01668,130.041701 1036.35,123.125 C1033.68332,116.208299 1032.35,109.166702 1032.35,102 C1032.35,94.8332975 1033.68332,87.8333675 1036.35,81 C1039.01668,74.1666325 1043.09997,68.0000275 1048.6,62.5 C1054.10003,56.9999725 1060.3083,52.8750137 1067.225,50.125 C1074.1417,47.3749863 1081.1833,46 1088.35,46 C1095.5167,46 1102.5583,47.3749863 1109.475,50.125 C1116.3917,52.8750137 1122.59997,56.9999725 1128.1,62.5 L1135.85,70.25 L1073.6,132.5 C1079.93336,135.666682 1086.64163,136.708339 1093.725,135.625 C1100.80837,134.541661 1107.01664,131.33336 1112.35,126 L1120.1,118.25 Z M1064.35,78 C1057.6833,84.6667 1054.35,92.66662 1054.35,102 C1054.35,107.166692 1055.51665,112.08331 1057.85,116.75 L1079.975,94.625 C1084.55835,90.0416438 1088.97498,85.6666875 1093.225,81.5 C1097.47502,77.3333125 1100.76665,74.083345 1103.1,71.75 C1096.76663,68.5833175 1090.05837,67.499995 1082.975,68.5 C1075.89163,69.500005 1069.68336,72.66664 1064.35,78 Z M1152.55,101.75 C1152.55,93.9166275 1154.00832,86.6250338 1156.925,79.875 C1159.84168,73.1249662 1163.84164,67.2083588 1168.925,62.125 C1174.00836,57.0416412 1179.96663,53.0416813 1186.8,50.125 C1193.63337,47.2083187 1200.88329,45.75 1208.55,45.75 C1216.38337,45.75 1223.67496,47.2083187 1230.425,50.125 C1237.17503,53.0416813 1243.13331,57.0416412 1248.3,62.125 C1253.46669,67.2083588 1257.50832,73.1249662 1260.425,79.875 C1263.34168,86.6250338 1264.8,93.9166275 1264.8,101.75 L1264.8,158 L1242.55,158 L1242.55,101.75 C1242.55,97.08331 1241.67501,92.7083538 1239.925,88.625 C1238.17499,84.5416462 1235.75835,80.9583488 1232.675,77.875 C1229.59165,74.7916512 1225.96669,72.3750088 1221.8,70.625 C1217.63331,68.8749912 1213.21669,68 1208.55,68 C1203.88331,68 1199.50835,68.8749912 1195.425,70.625 C1191.34164,72.3750088 1187.75835,74.7916512 1184.675,77.875 C1181.59165,80.9583488 1179.17501,84.5416462 1177.425,88.625 C1175.67499,92.7083538 1174.8,97.08331 1174.8,101.75 L1174.8,158 L1152.55,158 L1152.55,101.75 Z M1348.75,135.5 L1348.75,157.75 L1337.75,157.75 C1330.08329,157.75 1322.83337,156.291681 1316,153.375 C1309.16663,150.458319 1303.16669,146.416692 1298,141.25 C1292.83331,136.083308 1288.79168,130.083368 1285.875,123.25 C1282.95832,116.416632 1281.5,109.166705 1281.5,101.5 L1281.5,0.5 L1303.75,0.5 L1303.75,68 L1348.75,68 L1348.75,90.25 L1303.75,90.25 L1303.75,101.5 C1303.75,106.16669 1304.62499,110.583313 1306.375,114.75 C1308.12501,118.916687 1310.54165,122.541651 1313.625,125.625 C1316.70835,128.708349 1320.33331,131.124991 1324.5,132.875 C1328.66669,134.625009 1333.08331,135.5 1337.75,135.5 L1348.75,135.5 Z" id="DailyMoment" fill="#FFFFFF"></path>
    </g>
</svg>